<svg width="1351" height="841" viewBox="0 0 1351 841" fill="none" xmlns="http://www.w3.org/2000/svg">
<g opacity="0.25">
<rect x="351" y="185" width="4" height="22" rx="2" fill="#4266E8"/>
<rect x="364" y="194" width="4" height="22" rx="2" transform="rotate(90 364 194)" fill="#4266E8"/>
<rect x="1317" y="22" width="4" height="22" rx="2" fill="#4266E8"/>
<rect x="1330" y="31" width="4" height="22" rx="2" transform="rotate(90 1330 31)" fill="#4266E8"/>
<rect x="67" y="76" width="4" height="22" rx="2" fill="#4266E8"/>
<rect x="80" y="85" width="4" height="22" rx="2" transform="rotate(90 80 85)" fill="#4266E8"/>
<rect x="425" y="770" width="4" height="22" rx="2" fill="#4266E8"/>
<rect x="438" y="779" width="4" height="22" rx="2" transform="rotate(90 438 779)" fill="#4266E8"/>
<rect x="1129" y="772" width="4" height="22" rx="2" fill="#4266E8"/>
<rect x="1142" y="781" width="4" height="22" rx="2" transform="rotate(90 1142 781)" fill="#4266E8"/>
<rect x="265" y="537" width="4" height="22" rx="2" fill="#4266E8"/>
<rect x="278" y="546" width="4" height="22" rx="2" transform="rotate(90 278 546)" fill="#4266E8"/>
<rect x="1096" y="458" width="4" height="22" rx="2" fill="#4266E8"/>
<rect x="1109" y="467" width="4" height="22" rx="2" transform="rotate(90 1109 467)" fill="#4266E8"/>
<rect x="927" y="147" width="4" height="22" rx="2" fill="#4266E8"/>
<rect x="940" y="156" width="4" height="22" rx="2" transform="rotate(90 940 156)" fill="#4266E8"/>
<rect x="604" width="4" height="22" rx="2" fill="#4266E8"/>
<rect x="617" y="9" width="4" height="22" rx="2" transform="rotate(90 617 9)" fill="#4266E8"/>
<circle cx="219" cy="362" r="6" fill="#4266E8"/>
<circle cx="219" cy="362" r="4" fill="#201F44"/>
<circle cx="76" cy="480" r="6" fill="#4266E8"/>
<circle cx="76" cy="480" r="4" fill="#201F44"/>
<circle cx="571" cy="331" r="6" fill="#4266E8"/>
<circle cx="571" cy="331" r="4" fill="#201F44"/>
<circle cx="370" cy="452" r="6" fill="#4266E8"/>
<circle cx="370" cy="452" r="4" fill="#201F44"/>
<circle cx="1013" cy="613" r="6" fill="#4266E8"/>
<circle cx="1013" cy="613" r="4" fill="#201F44"/>
<circle cx="1279" cy="377" r="6" fill="#4266E8"/>
<circle cx="1279" cy="377" r="4" fill="#201F44"/>
<circle cx="1345" cy="777" r="6" fill="#4266E8"/>
<circle cx="1345" cy="777" r="4" fill="#201F44"/>
<circle cx="623" cy="437" r="6" fill="#4266E8"/>
<circle cx="623" cy="437" r="4" fill="#201F44"/>
<circle cx="843" cy="257" r="6" fill="#4266E8"/>
<circle cx="843" cy="257" r="4" fill="#201F44"/>
<circle cx="1267" cy="630" r="6" fill="#4266E8"/>
<circle cx="1267" cy="630" r="4" fill="#201F44"/>
<circle cx="469" cy="636" r="6" fill="#4266E8"/>
<circle cx="469" cy="636" r="4" fill="#201F44"/>
<circle cx="115" cy="759" r="6" fill="#4266E8"/>
<circle cx="115" cy="759" r="4" fill="#201F44"/>
<circle cx="6" cy="835" r="6" fill="#4266E8"/>
<circle cx="6" cy="835" r="4" fill="#201F44"/>
</g>
</svg>
