<svg width="791" height="579" viewBox="0 0 791 579" fill="none" xmlns="http://www.w3.org/2000/svg">
<path d="M382.694 511.916C212.441 499.424 9.40715 372.234 19.7439 241.271C30.0807 110.308 226.722 -11.6081 396.974 0.883783C567.227 13.3756 665.23 258.124 654.893 389.087C644.557 520.05 552.947 524.408 382.694 511.916Z" fill="#443E76"/>
<path d="M396.973 532.951C593.253 532.951 752.37 523.552 752.37 511.958C752.37 500.364 593.253 490.965 396.973 490.965C200.692 490.965 41.5755 500.364 41.5755 511.958C41.5755 523.552 200.692 532.951 396.973 532.951Z" fill="#5D56A2"/>
<path opacity="0.1" d="M396.973 525.502C564.16 525.502 699.692 519.286 699.692 511.619C699.692 503.952 564.16 497.737 396.973 497.737C229.785 497.737 94.253 503.952 94.253 511.619C94.253 519.286 229.785 525.502 396.973 525.502Z" fill="#221F1F"/>
<path d="M665.979 109.705H137.8V509.249H665.979V109.705Z" fill="#6A63B5"/>
<path d="M395.88 164.307H265.579C265.371 164.307 265.165 164.268 264.973 164.192C264.78 164.115 264.606 164.003 264.459 163.861C264.311 163.72 264.195 163.552 264.115 163.366C264.035 163.181 263.994 162.983 263.994 162.782C263.994 162.582 264.035 162.383 264.115 162.198C264.195 162.013 264.311 161.845 264.459 161.703C264.606 161.561 264.78 161.449 264.973 161.373C265.165 161.296 265.371 161.257 265.579 161.257H395.88C396.299 161.258 396.7 161.419 396.996 161.705C397.292 161.991 397.458 162.378 397.458 162.782C397.458 163.186 397.292 163.573 396.996 163.859C396.7 164.145 396.299 164.306 395.88 164.307Z" fill="#F2F2F2"/>
<path d="M538.516 181.078H333.576C333.157 181.078 332.754 180.917 332.458 180.631C332.161 180.345 331.995 179.958 331.995 179.553C331.995 179.149 332.161 178.761 332.458 178.475C332.754 178.189 333.157 178.029 333.576 178.029H538.516C538.724 178.029 538.929 178.068 539.121 178.145C539.313 178.221 539.487 178.334 539.634 178.475C539.781 178.617 539.897 178.785 539.977 178.97C540.056 179.155 540.097 179.353 540.097 179.553C540.097 179.754 540.056 179.952 539.977 180.137C539.897 180.322 539.781 180.49 539.634 180.631C539.487 180.773 539.313 180.885 539.121 180.962C538.929 181.039 538.724 181.078 538.516 181.078Z" fill="#F2F2F2"/>
<path d="M396.513 197.849H266.211C265.792 197.849 265.39 197.688 265.093 197.403C264.797 197.117 264.63 196.729 264.63 196.324C264.63 195.92 264.797 195.532 265.093 195.246C265.39 194.96 265.792 194.8 266.211 194.8H396.513C396.932 194.8 397.334 194.96 397.631 195.246C397.927 195.532 398.094 195.92 398.094 196.324C398.094 196.729 397.927 197.117 397.631 197.403C397.334 197.688 396.932 197.849 396.513 197.849Z" fill="#F2F2F2"/>
<path d="M538.516 198.154H408.215C407.795 198.154 407.393 197.993 407.096 197.708C406.8 197.422 406.633 197.034 406.633 196.629C406.633 196.225 406.8 195.837 407.096 195.551C407.393 195.265 407.795 195.105 408.215 195.105H538.516C538.935 195.105 539.338 195.265 539.634 195.551C539.931 195.837 540.097 196.225 540.097 196.629C540.097 197.034 539.931 197.422 539.634 197.708C539.338 197.993 538.935 198.154 538.516 198.154Z" fill="#F2F2F2"/>
<path d="M396.829 214.62H266.528C266.108 214.62 265.706 214.46 265.41 214.174C265.113 213.888 264.946 213.5 264.946 213.096C264.946 212.691 265.113 212.303 265.41 212.018C265.706 211.732 266.108 211.571 266.528 211.571H396.829C397.248 211.571 397.651 211.732 397.947 212.018C398.244 212.303 398.41 212.691 398.41 213.096C398.41 213.5 398.244 213.888 397.947 214.174C397.651 214.46 397.248 214.62 396.829 214.62Z" fill="#F2F2F2"/>
<path d="M397.145 231.391H266.844C266.425 231.391 266.022 231.231 265.726 230.945C265.429 230.659 265.263 230.271 265.263 229.867C265.263 229.462 265.429 229.075 265.726 228.789C266.022 228.503 266.425 228.342 266.844 228.342H397.145C397.565 228.342 397.967 228.503 398.263 228.789C398.56 229.075 398.727 229.462 398.727 229.867C398.727 230.271 398.56 230.659 398.263 230.945C397.967 231.231 397.565 231.391 397.145 231.391Z" fill="#F2F2F2"/>
<path d="M456.287 164.612H418.968C418.548 164.612 418.146 164.451 417.849 164.165C417.553 163.879 417.386 163.491 417.386 163.087C417.386 162.683 417.553 162.295 417.849 162.009C418.146 161.723 418.548 161.562 418.968 161.562H456.287C456.706 161.562 457.108 161.723 457.405 162.009C457.702 162.295 457.868 162.683 457.868 163.087C457.868 163.491 457.702 163.879 457.405 164.165C457.108 164.451 456.706 164.612 456.287 164.612Z" fill="#F2F2F2"/>
<path d="M456.287 214.62H418.968C418.548 214.62 418.146 214.46 417.849 214.174C417.553 213.888 417.386 213.5 417.386 213.096C417.386 212.691 417.553 212.303 417.849 212.018C418.146 211.732 418.548 211.571 418.968 211.571H456.287C456.706 211.571 457.108 211.732 457.405 212.018C457.702 212.303 457.868 212.691 457.868 213.096C457.868 213.5 457.702 213.888 457.405 214.174C457.108 214.46 456.706 214.62 456.287 214.62Z" fill="#F2F2F2"/>
<path d="M456.287 231.086H418.968C418.76 231.087 418.554 231.048 418.361 230.971C418.169 230.895 417.994 230.783 417.847 230.641C417.7 230.499 417.583 230.331 417.504 230.146C417.424 229.961 417.383 229.762 417.383 229.562C417.383 229.361 417.424 229.163 417.504 228.978C417.583 228.792 417.7 228.624 417.847 228.483C417.994 228.341 418.169 228.229 418.361 228.152C418.554 228.076 418.76 228.037 418.968 228.037H456.287C456.495 228.037 456.701 228.076 456.893 228.152C457.085 228.229 457.26 228.341 457.407 228.483C457.554 228.624 457.671 228.792 457.751 228.978C457.831 229.163 457.872 229.361 457.872 229.562C457.872 229.762 457.831 229.961 457.751 230.146C457.671 230.331 457.554 230.499 457.407 230.641C457.26 230.783 457.085 230.895 456.893 230.971C456.701 231.048 456.495 231.087 456.287 231.086Z" fill="#F2F2F2"/>
<path d="M518.907 231.086H481.588C481.169 231.086 480.768 230.925 480.472 230.639C480.176 230.353 480.01 229.966 480.01 229.562C480.01 229.158 480.176 228.771 480.472 228.485C480.768 228.199 481.169 228.038 481.588 228.037H518.907C519.115 228.037 519.321 228.076 519.514 228.152C519.706 228.229 519.881 228.341 520.028 228.483C520.175 228.624 520.292 228.792 520.371 228.978C520.451 229.163 520.492 229.361 520.492 229.562C520.492 229.762 520.451 229.961 520.371 230.146C520.292 230.331 520.175 230.499 520.028 230.641C519.881 230.783 519.706 230.895 519.514 230.971C519.321 231.048 519.115 231.087 518.907 231.086Z" fill="#F2F2F2"/>
<path d="M302.582 181.078H265.263C264.843 181.078 264.441 180.917 264.144 180.631C263.848 180.345 263.681 179.958 263.681 179.553C263.681 179.149 263.848 178.761 264.144 178.475C264.441 178.189 264.843 178.029 265.263 178.029H302.582C303.001 178.029 303.404 178.189 303.7 178.475C303.997 178.761 304.163 179.149 304.163 179.553C304.163 179.958 303.997 180.345 303.7 180.631C303.404 180.917 303.001 181.078 302.582 181.078Z" fill="#F2F2F2"/>
<path d="M396.038 411.3H265.737C265.318 411.3 264.915 411.14 264.619 410.854C264.322 410.568 264.156 410.18 264.156 409.776C264.156 409.371 264.322 408.984 264.619 408.698C264.915 408.412 265.318 408.251 265.737 408.251H396.038C396.458 408.251 396.86 408.412 397.157 408.698C397.453 408.984 397.62 409.371 397.62 409.776C397.62 410.18 397.453 410.568 397.157 410.854C396.86 411.14 396.458 411.3 396.038 411.3Z" fill="#F2F2F2"/>
<path d="M395.406 444.843H265.104C264.685 444.843 264.283 444.682 263.986 444.396C263.69 444.11 263.523 443.722 263.523 443.318C263.523 442.914 263.69 442.526 263.986 442.24C264.283 441.954 264.685 441.793 265.104 441.793H395.406C395.825 441.793 396.227 441.954 396.524 442.24C396.821 442.526 396.987 442.914 396.987 443.318C396.987 443.722 396.821 444.11 396.524 444.396C396.227 444.682 395.825 444.843 395.406 444.843Z" fill="#F2F2F2"/>
<path d="M395.722 461.614H265.421C265.213 461.614 265.007 461.575 264.815 461.499C264.622 461.422 264.448 461.31 264.3 461.168C264.153 461.027 264.036 460.859 263.957 460.673C263.877 460.488 263.836 460.29 263.836 460.089C263.836 459.889 263.877 459.69 263.957 459.505C264.036 459.32 264.153 459.152 264.3 459.01C264.448 458.868 264.622 458.756 264.815 458.68C265.007 458.603 265.213 458.564 265.421 458.565H395.722C395.93 458.564 396.136 458.603 396.328 458.68C396.521 458.756 396.695 458.868 396.842 459.01C396.99 459.152 397.106 459.32 397.186 459.505C397.266 459.69 397.307 459.889 397.307 460.089C397.307 460.29 397.266 460.488 397.186 460.673C397.106 460.859 396.99 461.027 396.842 461.168C396.695 461.31 396.521 461.422 396.328 461.499C396.136 461.575 395.93 461.614 395.722 461.614Z" fill="#F2F2F2"/>
<path d="M451.385 445.148H414.065C413.646 445.148 413.244 444.987 412.947 444.701C412.651 444.415 412.484 444.027 412.484 443.623C412.484 443.219 412.651 442.831 412.947 442.545C413.244 442.259 413.646 442.098 414.065 442.098H451.385C451.804 442.098 452.206 442.259 452.503 442.545C452.799 442.831 452.966 443.219 452.966 443.623C452.966 444.027 452.799 444.415 452.503 444.701C452.206 444.987 451.804 445.148 451.385 445.148Z" fill="#F2F2F2"/>
<path d="M451.385 461.614H414.065C413.646 461.614 413.244 461.453 412.947 461.167C412.651 460.881 412.484 460.494 412.484 460.089C412.484 459.685 412.651 459.297 412.947 459.011C413.244 458.725 413.646 458.565 414.065 458.565H451.385C451.804 458.565 452.206 458.725 452.503 459.011C452.799 459.297 452.966 459.685 452.966 460.089C452.966 460.494 452.799 460.881 452.503 461.167C452.206 461.453 451.804 461.614 451.385 461.614Z" fill="#F2F2F2"/>
<path d="M514.005 445.148H476.686C476.267 445.148 475.864 444.987 475.568 444.701C475.271 444.415 475.105 444.027 475.105 443.623C475.105 443.219 475.271 442.831 475.568 442.545C475.864 442.259 476.267 442.098 476.686 442.098H514.005C514.425 442.098 514.827 442.259 515.123 442.545C515.42 442.831 515.587 443.219 515.587 443.623C515.587 444.027 515.42 444.415 515.123 444.701C514.827 444.987 514.425 445.148 514.005 445.148Z" fill="#F2F2F2"/>
<path d="M538.674 428.072H333.734C333.315 428.072 332.912 427.911 332.616 427.625C332.319 427.339 332.153 426.951 332.153 426.547C332.153 426.143 332.319 425.755 332.616 425.469C332.912 425.183 333.315 425.022 333.734 425.022H538.674C539.093 425.022 539.496 425.183 539.792 425.469C540.089 425.755 540.255 426.143 540.255 426.547C540.255 426.951 540.089 427.339 539.792 427.625C539.496 427.911 539.093 428.072 538.674 428.072Z" fill="#F2F2F2"/>
<path d="M302.74 428.072H265.421C265.001 428.072 264.599 427.911 264.303 427.625C264.006 427.339 263.839 426.951 263.839 426.547C263.839 426.143 264.006 425.755 264.303 425.469C264.599 425.183 265.001 425.022 265.421 425.022H302.74C303.159 425.022 303.562 425.183 303.858 425.469C304.155 425.755 304.321 426.143 304.321 426.547C304.321 426.951 304.155 427.339 303.858 427.625C303.562 427.911 303.159 428.072 302.74 428.072Z" fill="#F2F2F2"/>
<path d="M538.674 478.69H333.734C333.526 478.69 333.32 478.651 333.128 478.575C332.936 478.498 332.761 478.386 332.614 478.245C332.467 478.103 332.35 477.935 332.27 477.75C332.19 477.564 332.149 477.366 332.149 477.165C332.149 476.965 332.19 476.766 332.27 476.581C332.35 476.396 332.467 476.228 332.614 476.086C332.761 475.944 332.936 475.832 333.128 475.756C333.32 475.679 333.526 475.64 333.734 475.641H538.674C539.093 475.641 539.496 475.801 539.792 476.087C540.089 476.373 540.255 476.761 540.255 477.165C540.255 477.57 540.089 477.957 539.792 478.243C539.496 478.529 539.093 478.69 538.674 478.69Z" fill="#F2F2F2"/>
<path d="M302.74 478.69H265.421C265.213 478.69 265.007 478.651 264.815 478.575C264.622 478.498 264.448 478.386 264.3 478.245C264.153 478.103 264.036 477.935 263.957 477.75C263.877 477.564 263.836 477.366 263.836 477.165C263.836 476.965 263.877 476.766 263.957 476.581C264.036 476.396 264.153 476.228 264.3 476.086C264.448 475.944 264.622 475.832 264.815 475.756C265.007 475.679 265.213 475.64 265.421 475.641H302.74C302.948 475.64 303.154 475.679 303.346 475.756C303.538 475.832 303.713 475.944 303.86 476.086C304.008 476.228 304.124 476.396 304.204 476.581C304.284 476.766 304.325 476.965 304.325 477.165C304.325 477.366 304.284 477.564 304.204 477.75C304.124 477.935 304.008 478.103 303.86 478.245C303.713 478.386 303.538 478.498 303.346 478.575C303.154 478.651 302.948 478.69 302.74 478.69Z" fill="#F2F2F2"/>
<path d="M364.57 271.642L313.967 319.821L364.57 368L375.955 357.023L337.688 320.126L376.271 282.924L364.57 271.642Z" fill="#20BB96"/>
<path d="M439.208 271.642L489.811 319.821L439.208 368L427.823 357.023L466.091 320.126L427.507 282.924L439.208 271.642Z" fill="#23D3A9"/>
<path d="M151.847 125.958C155.338 125.958 158.168 123.229 158.168 119.863C158.168 116.497 155.338 113.768 151.847 113.768C148.356 113.768 145.526 116.497 145.526 119.863C145.526 123.229 148.356 125.958 151.847 125.958Z" fill="#887FEB"/>
<path d="M168.704 125.958C172.195 125.958 175.025 123.229 175.025 119.863C175.025 116.497 172.195 113.768 168.704 113.768C165.213 113.768 162.382 116.497 162.382 119.863C162.382 123.229 165.213 125.958 168.704 125.958Z" fill="#887FEB"/>
<path d="M185.561 125.958C189.052 125.958 191.882 123.229 191.882 119.863C191.882 116.497 189.052 113.768 185.561 113.768C182.069 113.768 179.239 116.497 179.239 119.863C179.239 123.229 182.069 125.958 185.561 125.958Z" fill="#887FEB"/>
<path opacity="0.1" d="M665.979 130.021H137.8V132.053H665.979V130.021Z" fill="black"/>
<path d="M774.948 411.363C774.948 454.549 748.321 469.627 715.474 469.627C682.628 469.627 656 454.549 656 411.363C656 368.178 715.474 313.239 715.474 313.239C715.474 313.239 774.948 368.178 774.948 411.363Z" fill="#30DAB1"/>
<path d="M713.308 463.021L713.917 426.879L739.266 382.166L714.012 421.209L714.286 404.958L731.756 372.609L714.359 400.658L714.851 371.43L733.559 345.675L714.928 366.833L715.236 313.24L713.302 384.189L713.461 381.262L694.441 353.191L713.156 386.88L711.384 419.523L711.331 418.656L689.404 389.116L711.265 421.717L711.043 425.799L711.003 425.861L711.022 426.196L706.525 509.014H712.533L713.253 466.237L735.061 433.716L713.308 463.021Z" fill="#6A63B5"/>
</svg>
