<svg width="791" height="579" viewBox="0 0 791 579" fill="none" xmlns="http://www.w3.org/2000/svg">
<g clip-path="url(#clip0)">
<path d="M382.694 511.916C212.441 499.424 9.40716 372.234 19.7439 241.271C30.0807 110.308 226.722 -11.6081 396.974 0.88377C567.227 13.3756 665.23 258.124 654.893 389.087C644.557 520.05 552.947 524.408 382.694 511.916Z" fill="#34336B"/>
<path d="M396.973 532.951C593.253 532.951 752.37 523.552 752.37 511.958C752.37 500.364 593.253 490.965 396.973 490.965C200.692 490.965 41.5755 500.364 41.5755 511.958C41.5755 523.552 200.692 532.951 396.973 532.951Z" fill="#6A63B5"/>
<path opacity="0.1" d="M396.973 525.502C564.16 525.502 699.692 519.286 699.692 511.619C699.692 503.952 564.16 497.737 396.973 497.737C229.785 497.737 94.253 503.952 94.253 511.619C94.253 519.286 229.785 525.502 396.973 525.502Z" fill="#221F1F"/>
<path d="M149.038 579C231.349 579 298.075 573.391 298.075 566.472C298.075 559.553 231.349 553.944 149.038 553.944C66.7264 553.944 0 559.553 0 566.472C0 573.391 66.7264 579 149.038 579Z" fill="#1E1C37"/>
<path opacity="0.1" d="M149.038 574.555C219.148 574.555 275.985 570.845 275.985 566.27C275.985 561.694 219.148 557.985 149.038 557.985C78.9266 557.985 22.0905 561.694 22.0905 566.27C22.0905 570.845 78.9266 574.555 149.038 574.555Z" fill="black"/>
<path d="M665.979 109.705H137.8V509.249H665.979V109.705Z" fill="#6A63B5"/>
<path d="M395.88 164.307H265.579C265.371 164.307 265.165 164.268 264.973 164.192C264.78 164.115 264.606 164.003 264.459 163.861C264.311 163.72 264.195 163.552 264.115 163.366C264.035 163.181 263.994 162.983 263.994 162.782C263.994 162.582 264.035 162.383 264.115 162.198C264.195 162.013 264.311 161.845 264.459 161.703C264.606 161.561 264.78 161.449 264.973 161.373C265.165 161.296 265.371 161.257 265.579 161.257H395.88C396.299 161.258 396.7 161.419 396.996 161.705C397.292 161.991 397.458 162.378 397.458 162.782C397.458 163.186 397.292 163.573 396.996 163.859C396.7 164.145 396.299 164.306 395.88 164.307Z" fill="#F2F2F2"/>
<path d="M538.516 181.078H333.576C333.157 181.078 332.754 180.917 332.458 180.631C332.161 180.345 331.995 179.958 331.995 179.553C331.995 179.149 332.161 178.761 332.458 178.475C332.754 178.189 333.157 178.029 333.576 178.029H538.516C538.724 178.029 538.929 178.068 539.121 178.145C539.313 178.221 539.487 178.334 539.634 178.475C539.781 178.617 539.897 178.785 539.977 178.97C540.056 179.155 540.097 179.353 540.097 179.553C540.097 179.754 540.056 179.952 539.977 180.137C539.897 180.322 539.781 180.49 539.634 180.631C539.487 180.773 539.313 180.885 539.121 180.962C538.929 181.039 538.724 181.078 538.516 181.078Z" fill="#F2F2F2"/>
<path d="M396.513 197.849H266.211C265.792 197.849 265.39 197.688 265.093 197.403C264.797 197.117 264.63 196.729 264.63 196.324C264.63 195.92 264.797 195.532 265.093 195.246C265.39 194.96 265.792 194.8 266.211 194.8H396.513C396.932 194.8 397.334 194.96 397.631 195.246C397.927 195.532 398.094 195.92 398.094 196.324C398.094 196.729 397.927 197.117 397.631 197.403C397.334 197.688 396.932 197.849 396.513 197.849Z" fill="#F2F2F2"/>
<path d="M538.516 198.154H408.215C407.795 198.154 407.393 197.993 407.096 197.708C406.8 197.422 406.633 197.034 406.633 196.629C406.633 196.225 406.8 195.837 407.096 195.551C407.393 195.265 407.795 195.105 408.215 195.105H538.516C538.935 195.105 539.338 195.265 539.634 195.551C539.931 195.837 540.097 196.225 540.097 196.629C540.097 197.034 539.931 197.422 539.634 197.708C539.338 197.993 538.935 198.154 538.516 198.154Z" fill="#F2F2F2"/>
<path d="M396.829 214.62H266.528C266.108 214.62 265.706 214.46 265.41 214.174C265.113 213.888 264.946 213.5 264.946 213.096C264.946 212.691 265.113 212.303 265.41 212.018C265.706 211.732 266.108 211.571 266.528 211.571H396.829C397.248 211.571 397.651 211.732 397.947 212.018C398.244 212.303 398.41 212.691 398.41 213.096C398.41 213.5 398.244 213.888 397.947 214.174C397.651 214.46 397.248 214.62 396.829 214.62Z" fill="#F2F2F2"/>
<path d="M397.145 231.391H266.844C266.425 231.391 266.022 231.231 265.726 230.945C265.429 230.659 265.263 230.271 265.263 229.867C265.263 229.462 265.429 229.075 265.726 228.789C266.022 228.503 266.425 228.342 266.844 228.342H397.145C397.565 228.342 397.967 228.503 398.263 228.789C398.56 229.075 398.727 229.462 398.727 229.867C398.727 230.271 398.56 230.659 398.263 230.945C397.967 231.231 397.565 231.391 397.145 231.391Z" fill="#F2F2F2"/>
<path d="M456.287 164.612H418.968C418.548 164.612 418.146 164.451 417.849 164.165C417.553 163.879 417.386 163.491 417.386 163.087C417.386 162.683 417.553 162.295 417.849 162.009C418.146 161.723 418.548 161.562 418.968 161.562H456.287C456.706 161.562 457.108 161.723 457.405 162.009C457.702 162.295 457.868 162.683 457.868 163.087C457.868 163.491 457.702 163.879 457.405 164.165C457.108 164.451 456.706 164.612 456.287 164.612Z" fill="#F2F2F2"/>
<path d="M456.287 214.62H418.968C418.548 214.62 418.146 214.46 417.849 214.174C417.553 213.888 417.386 213.5 417.386 213.096C417.386 212.691 417.553 212.303 417.849 212.018C418.146 211.732 418.548 211.571 418.968 211.571H456.287C456.706 211.571 457.108 211.732 457.405 212.018C457.702 212.303 457.868 212.691 457.868 213.096C457.868 213.5 457.702 213.888 457.405 214.174C457.108 214.46 456.706 214.62 456.287 214.62Z" fill="#F2F2F2"/>
<path d="M456.287 231.086H418.968C418.76 231.087 418.554 231.048 418.361 230.971C418.169 230.895 417.994 230.783 417.847 230.641C417.7 230.499 417.583 230.331 417.504 230.146C417.424 229.961 417.383 229.762 417.383 229.562C417.383 229.361 417.424 229.163 417.504 228.978C417.583 228.792 417.7 228.624 417.847 228.483C417.994 228.341 418.169 228.229 418.361 228.152C418.554 228.076 418.76 228.037 418.968 228.037H456.287C456.495 228.037 456.701 228.076 456.893 228.152C457.085 228.229 457.26 228.341 457.407 228.483C457.554 228.624 457.671 228.792 457.751 228.978C457.831 229.163 457.872 229.361 457.872 229.562C457.872 229.762 457.831 229.961 457.751 230.146C457.671 230.331 457.554 230.499 457.407 230.641C457.26 230.783 457.085 230.895 456.893 230.971C456.701 231.048 456.495 231.087 456.287 231.086Z" fill="#F2F2F2"/>
<path d="M518.907 231.086H481.588C481.169 231.086 480.768 230.925 480.472 230.639C480.176 230.353 480.01 229.966 480.01 229.562C480.01 229.158 480.176 228.771 480.472 228.485C480.768 228.199 481.169 228.038 481.588 228.037H518.907C519.115 228.037 519.321 228.076 519.514 228.152C519.706 228.229 519.881 228.341 520.028 228.483C520.175 228.624 520.292 228.792 520.371 228.978C520.451 229.163 520.492 229.361 520.492 229.562C520.492 229.762 520.451 229.961 520.371 230.146C520.292 230.331 520.175 230.499 520.028 230.641C519.881 230.783 519.706 230.895 519.514 230.971C519.321 231.048 519.115 231.087 518.907 231.086Z" fill="#F2F2F2"/>
<path d="M302.582 181.078H265.263C264.843 181.078 264.441 180.917 264.144 180.631C263.848 180.345 263.681 179.958 263.681 179.553C263.681 179.149 263.848 178.761 264.144 178.475C264.441 178.189 264.843 178.029 265.263 178.029H302.582C303.001 178.029 303.404 178.189 303.7 178.475C303.997 178.761 304.163 179.149 304.163 179.553C304.163 179.958 303.997 180.345 303.7 180.631C303.404 180.917 303.001 181.078 302.582 181.078Z" fill="#F2F2F2"/>
<path d="M396.038 411.3H265.737C265.318 411.3 264.915 411.14 264.619 410.854C264.322 410.568 264.156 410.18 264.156 409.776C264.156 409.371 264.322 408.984 264.619 408.698C264.915 408.412 265.318 408.251 265.737 408.251H396.038C396.458 408.251 396.86 408.412 397.157 408.698C397.453 408.984 397.62 409.371 397.62 409.776C397.62 410.18 397.453 410.568 397.157 410.854C396.86 411.14 396.458 411.3 396.038 411.3Z" fill="#F2F2F2"/>
<path d="M395.406 444.843H265.104C264.685 444.843 264.283 444.682 263.986 444.396C263.69 444.11 263.523 443.722 263.523 443.318C263.523 442.914 263.69 442.526 263.986 442.24C264.283 441.954 264.685 441.793 265.104 441.793H395.406C395.825 441.793 396.227 441.954 396.524 442.24C396.821 442.526 396.987 442.914 396.987 443.318C396.987 443.722 396.821 444.11 396.524 444.396C396.227 444.682 395.825 444.843 395.406 444.843Z" fill="#F2F2F2"/>
<path d="M395.722 461.614H265.421C265.213 461.614 265.007 461.575 264.815 461.499C264.622 461.422 264.448 461.31 264.3 461.168C264.153 461.027 264.036 460.859 263.957 460.673C263.877 460.488 263.836 460.29 263.836 460.089C263.836 459.889 263.877 459.69 263.957 459.505C264.036 459.32 264.153 459.152 264.3 459.01C264.448 458.868 264.622 458.756 264.815 458.68C265.007 458.603 265.213 458.564 265.421 458.565H395.722C395.93 458.564 396.136 458.603 396.328 458.68C396.521 458.756 396.695 458.868 396.842 459.01C396.99 459.152 397.106 459.32 397.186 459.505C397.266 459.69 397.307 459.889 397.307 460.089C397.307 460.29 397.266 460.488 397.186 460.673C397.106 460.859 396.99 461.027 396.842 461.168C396.695 461.31 396.521 461.422 396.328 461.499C396.136 461.575 395.93 461.614 395.722 461.614Z" fill="#F2F2F2"/>
<path d="M451.385 445.148H414.065C413.646 445.148 413.244 444.987 412.947 444.701C412.651 444.415 412.484 444.027 412.484 443.623C412.484 443.219 412.651 442.831 412.947 442.545C413.244 442.259 413.646 442.098 414.065 442.098H451.385C451.804 442.098 452.206 442.259 452.503 442.545C452.799 442.831 452.966 443.219 452.966 443.623C452.966 444.027 452.799 444.415 452.503 444.701C452.206 444.987 451.804 445.148 451.385 445.148Z" fill="#F2F2F2"/>
<path d="M451.385 461.614H414.065C413.646 461.614 413.244 461.453 412.947 461.167C412.651 460.881 412.484 460.494 412.484 460.089C412.484 459.685 412.651 459.297 412.947 459.011C413.244 458.725 413.646 458.565 414.065 458.565H451.385C451.804 458.565 452.206 458.725 452.503 459.011C452.799 459.297 452.966 459.685 452.966 460.089C452.966 460.494 452.799 460.881 452.503 461.167C452.206 461.453 451.804 461.614 451.385 461.614Z" fill="#F2F2F2"/>
<path d="M514.005 445.148H476.686C476.267 445.148 475.864 444.987 475.568 444.701C475.271 444.415 475.105 444.027 475.105 443.623C475.105 443.219 475.271 442.831 475.568 442.545C475.864 442.259 476.267 442.098 476.686 442.098H514.005C514.425 442.098 514.827 442.259 515.123 442.545C515.42 442.831 515.587 443.219 515.587 443.623C515.587 444.027 515.42 444.415 515.123 444.701C514.827 444.987 514.425 445.148 514.005 445.148Z" fill="#F2F2F2"/>
<path d="M538.674 428.072H333.734C333.315 428.072 332.912 427.911 332.616 427.625C332.319 427.339 332.153 426.951 332.153 426.547C332.153 426.143 332.319 425.755 332.616 425.469C332.912 425.183 333.315 425.022 333.734 425.022H538.674C539.093 425.022 539.496 425.183 539.792 425.469C540.089 425.755 540.255 426.143 540.255 426.547C540.255 426.951 540.089 427.339 539.792 427.625C539.496 427.911 539.093 428.072 538.674 428.072Z" fill="#F2F2F2"/>
<path d="M302.74 428.072H265.421C265.001 428.072 264.599 427.911 264.303 427.625C264.006 427.339 263.839 426.951 263.839 426.547C263.839 426.143 264.006 425.755 264.303 425.469C264.599 425.183 265.001 425.022 265.421 425.022H302.74C303.159 425.022 303.562 425.183 303.858 425.469C304.155 425.755 304.321 426.143 304.321 426.547C304.321 426.951 304.155 427.339 303.858 427.625C303.562 427.911 303.159 428.072 302.74 428.072Z" fill="#F2F2F2"/>
<path d="M538.674 478.69H333.734C333.526 478.69 333.32 478.651 333.128 478.575C332.936 478.498 332.761 478.386 332.614 478.245C332.467 478.103 332.35 477.935 332.27 477.75C332.19 477.564 332.149 477.366 332.149 477.165C332.149 476.965 332.19 476.766 332.27 476.581C332.35 476.396 332.467 476.228 332.614 476.086C332.761 475.944 332.936 475.832 333.128 475.756C333.32 475.679 333.526 475.64 333.734 475.641H538.674C539.093 475.641 539.496 475.801 539.792 476.087C540.089 476.373 540.255 476.761 540.255 477.165C540.255 477.57 540.089 477.957 539.792 478.243C539.496 478.529 539.093 478.69 538.674 478.69Z" fill="#F2F2F2"/>
<path d="M302.74 478.69H265.421C265.213 478.69 265.007 478.651 264.815 478.575C264.622 478.498 264.448 478.386 264.3 478.245C264.153 478.103 264.036 477.935 263.957 477.75C263.877 477.564 263.836 477.366 263.836 477.165C263.836 476.965 263.877 476.766 263.957 476.581C264.036 476.396 264.153 476.228 264.3 476.086C264.448 475.944 264.622 475.832 264.815 475.756C265.007 475.679 265.213 475.64 265.421 475.641H302.74C302.948 475.64 303.154 475.679 303.346 475.756C303.538 475.832 303.713 475.944 303.86 476.086C304.008 476.228 304.124 476.396 304.204 476.581C304.284 476.766 304.325 476.965 304.325 477.165C304.325 477.366 304.284 477.564 304.204 477.75C304.124 477.935 304.008 478.103 303.86 478.245C303.713 478.386 303.538 478.498 303.346 478.575C303.154 478.651 302.948 478.69 302.74 478.69Z" fill="#F2F2F2"/>
<path d="M364.57 271.642L313.967 319.821L364.57 368L375.955 357.023L337.688 320.126L376.271 282.924L364.57 271.642Z" fill="#8C85FF"/>
<path d="M439.208 271.642L489.811 319.821L439.208 368L427.823 357.023L466.091 320.126L427.507 282.924L439.208 271.642Z" fill="#8C85FF"/>
<path d="M151.847 125.958C155.338 125.958 158.168 123.229 158.168 119.863C158.168 116.497 155.338 113.768 151.847 113.768C148.356 113.768 145.526 116.497 145.526 119.863C145.526 123.229 148.356 125.958 151.847 125.958Z" fill="#6C63FF"/>
<path d="M168.704 125.958C172.195 125.958 175.025 123.229 175.025 119.863C175.025 116.497 172.195 113.768 168.704 113.768C165.213 113.768 162.382 116.497 162.382 119.863C162.382 123.229 165.213 125.958 168.704 125.958Z" fill="#6C63FF"/>
<path d="M185.561 125.958C189.052 125.958 191.882 123.229 191.882 119.863C191.882 116.497 189.052 113.768 185.561 113.768C182.069 113.768 179.239 116.497 179.239 119.863C179.239 123.229 182.069 125.958 185.561 125.958Z" fill="#6C63FF"/>
<path opacity="0.1" d="M665.979 130.021H137.8V132.053H665.979V130.021Z" fill="black"/>
<path d="M791 411.363C791 454.549 764.373 469.627 731.526 469.627C698.68 469.627 672.052 454.549 672.052 411.363C672.052 368.178 731.526 313.239 731.526 313.239C731.526 313.239 791 368.178 791 411.363Z" fill="#34336B"/>
<path d="M729.36 463.021L729.969 426.879L755.318 382.166L730.064 421.209L730.338 404.958L747.808 372.609L730.411 400.658L730.903 371.43L749.611 345.675L730.98 366.833L731.288 313.24L729.354 384.189L729.513 381.262L710.493 353.191L729.208 386.88L727.436 419.523L727.383 418.656L705.456 389.116L727.317 421.717L727.095 425.799L727.055 425.861L727.074 426.196L722.577 509.014H728.585L729.305 466.237L751.113 433.716L729.36 463.021Z" fill="#6A63B5"/>
<path d="M86.1252 508.634C84.3005 509.613 82.3756 510.408 80.3812 511.006C76.814 511.945 73.0013 511.601 69.3982 512.403C67.923 512.731 66.3174 513.418 65.8483 514.806C65.5042 515.824 65.8785 516.923 66.237 517.937C70.2184 529.191 72.6181 541.141 78.9675 551.336C81.636 555.618 84.948 559.495 88.7955 562.84C90.239 564.094 91.8747 565.321 93.8072 565.518C94.6978 565.609 95.5974 565.471 96.4153 565.12C97.2332 564.768 97.9404 564.215 98.4655 563.515C98.9906 562.816 99.315 561.995 99.4061 561.136C99.4971 560.277 99.3515 559.41 98.984 558.623C98.4147 557.403 97.3564 556.459 96.6739 555.294C95.9339 553.811 95.4998 552.203 95.396 550.56C94.7687 545.746 94.1644 540.715 95.8943 536.159C97.0545 533.104 99.1828 530.499 100.956 527.73C102.729 524.961 104.202 521.79 103.807 518.558C103.538 516.353 102.422 514.335 101.244 512.427C100.063 510.515 97.7286 505.378 95.3559 504.741C92.893 504.078 88.2732 507.572 86.1252 508.634Z" fill="#2F2E41"/>
<path d="M151.048 547.511C151.086 548.6 150.928 549.687 150.583 550.724C149.84 552.615 147.997 553.911 147.045 555.713C145.721 558.219 146.321 561.248 147.199 563.93C147.748 565.612 148.47 567.362 149.947 568.402C151.209 569.156 152.646 569.6 154.128 569.693C166.796 571.384 179.665 570.414 192.448 570.768C194.778 570.832 197.245 570.911 199.279 569.813C201.313 568.715 202.57 565.955 201.187 564.147C199.945 562.522 197.489 562.537 195.398 562.442C189.954 562.175 184.769 560.116 180.709 556.608C179.909 555.948 179.215 555.178 178.649 554.321C178.214 553.561 177.854 552.764 177.572 551.939C175.779 547.259 173.648 542.706 171.192 538.315C170.504 537.086 169.726 535.806 168.448 535.148C167.513 534.738 166.498 534.525 165.471 534.521C162.284 534.322 154.034 533.277 151.57 535.666C149.294 537.873 151.099 544.707 151.048 547.511Z" fill="#2F2E41"/>
<path d="M170.654 274.734C181.894 274.734 191.005 265.949 191.005 255.112C191.005 244.276 181.894 235.491 170.654 235.491C159.415 235.491 150.303 244.276 150.303 255.112C150.303 265.949 159.415 274.734 170.654 274.734Z" fill="#FBBEBE"/>
<path d="M152.277 271.315C151.066 274.439 149.013 277.373 146.026 279.055L174.173 284.591C173.152 280.63 173.017 276.505 173.778 272.49C174.057 271.518 174.115 270.499 173.946 269.504C173.417 267.535 171.118 266.588 169.062 266.135C163.924 265.006 159.382 264.401 154.608 262.213C153.148 264.622 153.353 268.538 152.277 271.315Z" fill="#FBBEBE"/>
<path d="M145.791 271.708C148.819 270.387 152.117 269.744 155.44 269.828C158.762 269.912 162.022 270.72 164.974 272.191C168.583 274.025 171.571 276.792 174.507 279.523C177.212 282.04 180.099 284.922 180.291 288.542C180.384 290.296 179.816 292.011 179.53 293.746C179.014 297.332 179.669 300.985 181.404 304.197C183.138 307.408 185.865 310.02 189.208 311.671C191.444 315.262 191.906 319.613 191.94 323.802C192.07 339.673 186.877 355.739 190.584 371.202C191.455 374.833 192.805 378.349 193.557 382.004C194.531 386.739 194.483 391.607 194.992 396.408C195.545 401.608 196.751 406.723 198.584 411.642C197.359 413.52 194.81 414.24 192.514 414.088C190.218 413.936 188.071 412.976 186.023 411.965C176.103 407.071 167.017 400.617 156.743 396.457C149.946 393.706 142.705 391.991 136.11 388.813C129.516 385.635 123.384 380.591 121.367 373.754C120.496 370.797 120.442 367.683 120.394 364.61C120.194 351.666 120.008 338.581 122.93 325.946C125.507 314.804 130.474 304.145 131.558 292.777C131.911 289.076 131.918 285.115 134.063 282.027C137.093 277.663 143.638 276.533 145.791 271.708Z" fill="#2F2E41"/>
<path d="M159.08 255.389C160.279 253.881 162.592 253.676 164.508 254.122C166.424 254.568 168.19 255.52 170.125 255.882C170.565 256.002 171.026 256.032 171.478 255.971C171.931 255.91 172.366 255.758 172.754 255.526C173.43 254.883 173.835 254.022 173.889 253.108C174.566 249.22 174.725 245.264 174.36 241.338C174.259 240.787 174.297 240.221 174.471 239.687C174.95 238.574 176.412 238.309 177.605 237.952C179.575 237.311 181.266 236.055 182.412 234.383C183.559 232.711 184.095 230.718 183.936 228.72C183.906 227.762 183.488 226.852 182.772 226.187C181.947 225.539 180.791 225.499 179.727 225.49C174.256 225.448 168.785 225.449 163.315 225.494C161.29 225.511 159.163 225.559 157.408 226.532C156.11 227.252 155.145 228.41 153.98 229.317C150.942 231.681 146.832 232.162 143.135 233.373C141.33 233.869 139.692 234.811 138.382 236.106C137.152 237.46 136.561 239.474 137.333 241.113C137.73 241.795 138.172 242.452 138.659 243.079C140.839 246.441 139.388 250.801 139.713 254.754C140.12 259.689 147.695 267.696 152.832 268.864C161.126 270.749 156.335 258.629 159.08 255.389Z" fill="#2F2E41"/>
<path d="M147.591 471.789C148.114 475.392 148.786 479.009 148.606 482.644C148.356 487.718 146.458 492.608 146.107 497.677C145.845 501.463 146.451 505.29 145.905 509.048C145.556 511.454 144.742 513.773 144.239 516.154C143.441 520.034 143.463 524.028 144.305 527.899C145.146 531.77 146.79 535.437 149.136 538.681C149.481 539.236 149.971 539.694 150.557 540.009C151.12 540.21 151.722 540.287 152.319 540.234C158.242 540.118 164.15 539.6 169.998 538.685C170.426 538.668 170.831 538.495 171.133 538.202C171.265 538.007 171.349 537.786 171.379 537.556C172.464 532.182 169.991 526.793 169.362 521.352C168.691 515.542 170.137 509.719 171.572 504.039C172.223 501.238 173.036 498.473 174.007 495.759C174.701 493.932 175.539 492.156 176.14 490.299C176.992 487.382 177.51 484.384 177.687 481.358C178.104 476.584 178.325 471.799 178.35 467.002C178.492 462.457 178.1 457.912 177.181 453.452C175.862 447.805 173.16 442.562 170.483 437.382C169.051 437.713 167.707 438.328 166.537 439.19C163.087 441.345 159.484 443.264 155.756 444.933C153.251 446.055 148.366 446.852 146.776 449.19C145.208 451.495 146.219 456.199 146.339 458.742C146.545 463.106 146.962 467.455 147.591 471.789Z" fill="#2F2E41"/>
<path opacity="0.1" d="M147.591 471.789C148.114 475.392 148.786 479.009 148.606 482.644C148.356 487.718 146.458 492.608 146.107 497.677C145.845 501.463 146.451 505.29 145.905 509.048C145.556 511.454 144.742 513.773 144.239 516.154C143.441 520.034 143.463 524.028 144.305 527.899C145.146 531.77 146.79 535.437 149.136 538.681C149.481 539.236 149.971 539.694 150.557 540.009C151.12 540.21 151.722 540.287 152.319 540.234C158.242 540.118 164.15 539.6 169.998 538.685C170.426 538.668 170.831 538.495 171.133 538.202C171.265 538.007 171.349 537.786 171.379 537.556C172.464 532.182 169.991 526.793 169.362 521.352C168.691 515.542 170.137 509.719 171.572 504.039C172.223 501.238 173.036 498.473 174.007 495.759C174.701 493.932 175.539 492.156 176.14 490.299C176.992 487.382 177.51 484.384 177.687 481.358C178.104 476.584 178.325 471.799 178.35 467.002C178.492 462.457 178.1 457.912 177.181 453.452C175.862 447.805 173.16 442.562 170.483 437.382C169.051 437.713 167.707 438.328 166.537 439.19C163.087 441.345 159.484 443.264 155.756 444.933C153.251 446.055 148.366 446.852 146.776 449.19C145.208 451.495 146.219 456.199 146.339 458.742C146.545 463.106 146.962 467.455 147.591 471.789Z" fill="black"/>
<path d="M120.077 394.816C117.375 401.831 121.347 409.412 124.799 416.115C133.301 432.629 139.206 450.25 145.079 467.796C145.519 469.111 145.959 470.545 145.468 471.842C145.045 472.764 144.357 473.55 143.486 474.109C139.437 477.074 134.28 478.13 129.457 479.682C124.795 481.182 120.33 483.2 116.152 485.695C112.656 487.784 109.382 490.194 106.114 492.601L95.7104 500.262C95.0368 500.701 94.4483 501.25 93.9715 501.885C92.9681 503.402 93.3791 505.384 93.8786 507.118C95.2016 511.71 96.905 516.192 98.9723 520.521C99.3124 521.47 99.96 522.288 100.82 522.855C102.443 523.697 104.429 522.581 105.669 521.266C106.909 519.951 107.982 518.314 109.73 517.749C111.476 517.185 113.397 517.868 115.221 517.622C118.17 517.222 120.128 514.603 122.253 512.592C130.938 504.377 145.438 504.973 154.992 497.71C156.373 496.518 157.835 495.417 159.369 494.413C160.984 493.493 162.816 492.988 164.491 492.174C169.588 489.699 172.792 484.584 174.509 479.336C176.225 474.089 176.715 468.55 177.948 463.178C178.586 460.401 179.425 457.654 179.709 454.823C179.891 452.189 179.832 449.546 179.531 446.923L176.084 405.806C175.803 402.459 175.522 399.107 174.977 395.79C164.739 396.143 154.508 396.54 144.264 396.657C136.113 396.75 127.812 397.299 120.077 394.816Z" fill="#2F2E41"/>
<path d="M116.314 404.434C117.702 406.587 121.083 406.543 123.41 405.362C125.738 404.182 127.547 402.198 129.88 401.027C133.015 399.454 136.725 399.514 140.258 399.61C145.851 399.762 151.513 399.924 156.895 401.402C162.461 402.931 167.88 405.874 173.635 405.287C174.637 405.185 175.732 404.908 176.277 404.091C176.596 403.5 176.746 402.837 176.712 402.171L176.9 397.323C177.015 396.484 176.876 395.632 176.5 394.868C176.017 394.232 175.355 393.743 174.592 393.46C166.4 389.636 157.058 388.924 147.962 388.624C143.338 388.471 138.713 388.408 134.085 388.435C130.158 388.458 125.444 387.91 121.626 388.922C116.502 390.28 113.714 400.403 116.314 404.434Z" fill="#2F2E41"/>
<path d="M167.753 277.463C157.019 277.372 147.292 270.541 136.559 270.374C135.263 270.288 133.963 270.504 132.772 271.004C131.276 271.731 130.293 273.135 129.157 274.321C125.983 277.635 121.388 279.404 118.127 282.638C115.071 285.671 113.37 290.189 114.577 294.254C115.784 298.32 120.339 301.438 124.606 300.461C126.326 295.095 129.874 290.447 134.676 287.269C137.175 285.724 139.808 284.391 142.546 283.286C147.37 281.179 152.764 279.031 157.8 280.611C159.657 281.287 161.409 282.208 163.004 283.347L171.4 288.785C170.422 285.064 169.542 280.892 167.753 277.463Z" fill="#6C63FF"/>
<path d="M123.37 296.864C121.945 298.578 123.998 301.062 123.684 303.238C123.475 304.684 122.241 305.788 121.727 307.161C121.195 308.584 121.477 310.159 121.275 311.659C121.072 312.749 120.773 313.821 120.379 314.862C119.475 317.971 118.844 321.148 118.493 324.36L116.614 337.887C116.288 339.923 116.089 341.976 116.02 344.035C116.114 345.573 116.008 347.118 115.702 348.631C115.286 350.109 114.365 351.402 113.745 352.813C113.125 354.223 112.838 355.929 113.675 357.231C110.872 359.482 110.038 363.904 111.999 366.871C112.372 367.333 112.664 367.851 112.863 368.405C112.971 369.178 112.838 369.966 112.482 370.667L110.582 375.547C110.096 376.796 109.942 378.698 111.294 378.983C110.174 380.104 109.302 381.433 108.73 382.888C108.452 383.619 108.369 384.405 108.488 385.175C108.608 385.945 108.926 386.673 109.413 387.294C109.885 387.693 110.287 388.163 110.603 388.686C110.789 389.415 110.741 390.181 110.465 390.883C110.181 391.949 110.126 393.059 110.304 394.146C110.482 395.233 110.889 396.274 111.5 397.203C112.133 398.12 113.029 398.84 114.079 399.274C115.129 399.708 116.287 399.838 117.413 399.647C121.213 398.821 124.628 397.516 128.459 398.194C136.709 399.653 144.986 401.119 152.976 403.579C162.096 406.386 170.926 410.503 180.457 411.367C181.084 411.491 181.736 411.393 182.295 411.091C182.78 410.648 183.082 410.049 183.144 409.407C184.126 404.968 185.108 400.529 186.09 396.09C187.277 391.169 188.181 386.19 188.798 381.173C189.133 377.935 189.229 374.679 189.324 371.426L190.083 345.537C190.439 341.721 189.911 337.877 188.538 334.282L184.171 320.841C181.679 313.17 175.962 306.368 173.927 298.574C172.638 293.64 171.687 288.346 168.232 284.501C163.307 279.019 154.785 278.166 147.327 279.109C143.958 279.535 140.559 280.27 137.645 281.954C134.275 283.903 131.792 286.971 129.39 289.97C127.41 292.441 125.396 294.427 123.37 296.864Z" fill="#6C63FF"/>
<path d="M140.785 373.014C141.4 375.569 142.69 377.924 143.48 380.434C144.804 384.638 144.691 389.167 146.012 393.372C146.567 395.137 147.37 396.832 147.768 398.635C148.696 402.841 147.341 407.192 145.658 411.174C143.976 415.156 141.926 419.082 141.38 423.35C140.995 426.356 141.548 429.749 143.951 431.7C146.445 433.725 150.071 433.588 153.32 433.318C154.486 433.287 155.637 433.056 156.72 432.636C159.205 431.502 160.251 428.668 160.832 426.077C162.778 417.396 162.222 408.398 161.657 399.533L160.177 376.35C159.893 371.887 159.588 367.331 158.161 363.046C157.642 361.487 156.738 358.337 155.261 357.341C153.798 356.356 149.621 356.312 147.81 356.23C139.313 355.845 139.408 367.28 140.785 373.014Z" fill="#FBBEBE"/>
<path d="M150.2 287.417C148.464 286.54 146.278 286.918 144.601 287.894C142.981 288.963 141.562 290.291 140.406 291.82C136.656 296.233 132.687 301.297 133.243 306.977C133.451 309.107 134.297 311.122 134.87 313.188C137.384 322.249 134.604 331.832 134.923 341.206C135.108 346.623 136.33 351.95 137.548 357.241C137.796 358.321 138.194 359.571 139.277 359.935C140.091 360.208 140.97 359.857 141.776 359.562C144.777 358.492 148 358.136 151.174 358.521C154.349 358.907 157.38 360.024 160.011 361.778C162.024 360.742 161.27 357.469 160.819 355.313C159.478 348.908 161.298 342.301 163.507 336.125C165.717 329.948 168.361 323.779 168.727 317.255C169.142 309.863 166.6 302.648 164.092 295.651C163.544 294.123 162.946 292.522 161.677 291.467C160.59 290.688 159.345 290.139 158.022 289.857C155.358 289.098 152.661 288.659 150.2 287.417Z" fill="#2F2E41"/>
</g>
<defs>
<clipPath id="clip0">
<rect width="791" height="579" fill="white"/>
</clipPath>
</defs>
</svg>
