<svg width="32" height="33" viewBox="0 0 32 33" fill="none" xmlns="http://www.w3.org/2000/svg">
<g clip-path="url(#clip0)">
<path d="M16 32.0049C24.8366 32.0049 32 24.8414 32 16.0049C32 7.16833 24.8366 0.00488281 16 0.00488281C7.16344 0.00488281 0 7.16833 0 16.0049C0 24.8414 7.16344 32.0049 16 32.0049Z" fill="#38A8E0"/>
<path d="M24.75 11.0774C24.0946 11.3677 23.3994 11.5581 22.6875 11.6424C23.4371 11.1933 23.9978 10.4869 24.265 9.65491C23.5601 10.0727 22.789 10.367 21.985 10.5249C21.4439 9.9487 20.7279 9.56702 19.9479 9.43902C19.1679 9.31102 18.3674 9.44384 17.6706 9.81691C16.9737 10.19 16.4194 10.7824 16.0934 11.5025C15.7674 12.2226 15.688 13.0301 15.8675 13.7999C14.4401 13.7286 13.0436 13.3579 11.7687 12.7118C10.4938 12.0658 9.3691 11.1589 8.4675 10.0499C8.00879 10.8402 7.86824 11.7755 8.07443 12.6657C8.28061 13.556 8.81805 14.3342 9.5775 14.8424C9.0077 14.8241 8.45054 14.6698 7.9525 14.3924C7.9525 14.4074 7.9525 14.4224 7.9525 14.4374C7.95219 15.2667 8.23882 16.0707 8.76377 16.7127C9.28871 17.3548 10.0196 17.7954 10.8325 17.9599C10.3035 18.1041 9.74853 18.1255 9.21 18.0224C9.4414 18.7338 9.88898 19.3554 10.4904 19.8004C11.0918 20.2454 11.817 20.4916 12.565 20.5049C11.2931 21.5036 9.72211 22.0451 8.105 22.0424C7.81951 22.0467 7.53402 22.0342 7.25 22.0049C8.89065 23.059 10.7999 23.6187 12.75 23.6174C19.355 23.6174 22.965 18.1474 22.965 13.4024C22.965 13.2474 22.965 13.0924 22.965 12.9374C23.6657 12.4283 24.2701 11.7985 24.75 11.0774Z" fill="white"/>
</g>
<defs>
<clipPath id="clip0">
<rect width="32" height="32" fill="white" transform="translate(0 0.00488281)"/>
</clipPath>
</defs>
</svg>
