<svg width="32" height="33" viewBox="0 0 32 33" fill="none" xmlns="http://www.w3.org/2000/svg">
<g clip-path="url(#clip0)">
<path d="M16 32.0049C24.8366 32.0049 32 24.8414 32 16.0049C32 7.16833 24.8366 0.00488281 16 0.00488281C7.16344 0.00488281 0 7.16833 0 16.0049C0 24.8414 7.16344 32.0049 16 32.0049Z" fill="#3D5A98"/>
<path d="M23.1175 8.00488H8.8825C8.64845 8.00488 8.42398 8.09786 8.25848 8.26336C8.09298 8.42886 8 8.65333 8 8.88738V23.1224C8 23.3564 8.09298 23.5809 8.25848 23.7464C8.42398 23.9119 8.64845 24.0049 8.8825 24.0049H16.5V17.5049H14.5V15.5049H16.5V13.5049C16.5 11.4374 17.8075 10.4224 19.6525 10.4224C20.2693 10.418 20.886 10.4456 21.5 10.5049V12.5049H20.25C20.0842 12.4989 19.919 12.5272 19.7647 12.5879C19.6104 12.6486 19.4702 12.7405 19.3529 12.8578C19.2356 12.9751 19.1438 13.1152 19.083 13.2696C19.0223 13.4239 18.9941 13.5891 19 13.7549V15.5049H21.5L21.25 17.5049H19V24.0049H23.1175C23.3516 24.0049 23.576 23.9119 23.7415 23.7464C23.907 23.5809 24 23.3564 24 23.1224V8.88738C24 8.65333 23.907 8.42886 23.7415 8.26336C23.576 8.09786 23.3516 8.00488 23.1175 8.00488Z" fill="white"/>
</g>
<defs>
<clipPath id="clip0">
<rect width="32" height="32" fill="white" transform="translate(0 0.00488281)"/>
</clipPath>
</defs>
</svg>
